<!--?xml version="1.0" encoding="utf-8"?-->
<!-- Generator: Adobe Illustrator 18.1.1, SVG Export Plug-In . SVG Version: 6.00 Build 0)  -->

<svg version="1.1" id="_x32_" xmlns="http://www.w3.org/2000/svg" xmlns:xlink="http://www.w3.org/1999/xlink" x="0px" y="0px" viewBox="0 0 512 512" style="width: 64px; height: 64px; opacity: 1;" xml:space="preserve">
<style type="text/css">
	.st0{fill:#4B4B4B;}
</style>
<g>
	<path class="st0" d="M277.869,301.036l82.11-73.561L308.02,164.67h-52.043h-52.004l-51.996,62.805l82.109,73.561
		c-48.356,10.106-84.712,52.996-84.712,104.337c0,58.912,47.745,106.627,106.604,106.627c58.906,0,106.658-47.715,106.658-106.627
		C362.635,354.025,326.271,311.134,277.869,301.036z M255.977,460.4c-30.319,0-55.027-24.67-55.027-55.027
		c0-30.319,24.708-55.004,55.027-55.004c30.373,0,55.035,24.686,55.035,55.004C311.012,435.73,286.35,460.4,255.977,460.4z" style="fill: rgb(255, 255, 255);"></path>
	<polygon class="st0" points="265.587,69.851 268.778,0 243.222,0 246.421,69.851 	" style="fill: rgb(255, 255, 255);"></polygon>
	<polygon class="st0" points="106.322,56.707 88.254,74.774 139.908,121.909 153.457,108.36 	" style="fill: rgb(255, 255, 255);"></polygon>
	<polygon class="st0" points="31.547,237.23 101.399,234.032 101.399,214.872 31.547,211.675 	" style="fill: rgb(255, 255, 255);"></polygon>
	<polygon class="st0" points="410.602,214.872 410.602,234.032 480.453,237.23 480.453,211.675 	" style="fill: rgb(255, 255, 255);"></polygon>
	<polygon class="st0" points="405.679,56.707 358.544,108.36 372.093,121.909 423.746,74.774 	" style="fill: rgb(255, 255, 255);"></polygon>
</g>
</svg>
